<mxfile host="65bd71144e">
    <diagram id="RDfv5rxrhYB-mPz-iGQi" name="Page-1">
        <mxGraphModel dx="1456" dy="809" grid="1" gridSize="10" guides="1" tooltips="1" connect="1" arrows="1" fold="1" page="1" pageScale="1" pageWidth="850" pageHeight="1100" math="0" shadow="0">
            <root>
                <mxCell id="0"/>
                <mxCell id="1" parent="0"/>
                <mxCell id="29" value="books" style="shape=table;startSize=40;container=1;collapsible=0;childLayout=tableLayout;fillColor=#231A4F;" parent="1" vertex="1">
                    <mxGeometry x="330" y="280" width="180" height="280" as="geometry"/>
                </mxCell>
                <mxCell id="30" value="" style="shape=tableRow;horizontal=0;startSize=0;swimlaneHead=0;swimlaneBody=0;top=0;left=0;bottom=0;right=0;collapsible=0;dropTarget=0;fillColor=none;points=[[0,0.5],[1,0.5]];portConstraint=eastwest;" parent="29" vertex="1">
                    <mxGeometry y="40" width="180" height="40" as="geometry"/>
                </mxCell>
                <mxCell id="31" value="id" style="shape=partialRectangle;html=1;whiteSpace=wrap;connectable=0;overflow=hidden;fillColor=#13181D;top=0;left=0;bottom=0;right=0;pointerEvents=1;" parent="30" vertex="1">
                    <mxGeometry width="90" height="40" as="geometry">
                        <mxRectangle width="90" height="40" as="alternateBounds"/>
                    </mxGeometry>
                </mxCell>
                <mxCell id="32" value="varchar" style="shape=partialRectangle;html=1;whiteSpace=wrap;connectable=0;overflow=hidden;fillColor=#13181D;top=0;left=0;bottom=0;right=0;pointerEvents=1;" parent="30" vertex="1">
                    <mxGeometry x="90" width="90" height="40" as="geometry">
                        <mxRectangle width="90" height="40" as="alternateBounds"/>
                    </mxGeometry>
                </mxCell>
                <mxCell id="33" value="" style="shape=tableRow;horizontal=0;startSize=0;swimlaneHead=0;swimlaneBody=0;top=0;left=0;bottom=0;right=0;collapsible=0;dropTarget=0;fillColor=none;points=[[0,0.5],[1,0.5]];portConstraint=eastwest;" parent="29" vertex="1">
                    <mxGeometry y="80" width="180" height="40" as="geometry"/>
                </mxCell>
                <mxCell id="34" value="title" style="shape=partialRectangle;html=1;whiteSpace=wrap;connectable=0;overflow=hidden;fillColor=#13181D;top=0;left=0;bottom=0;right=0;pointerEvents=1;" parent="33" vertex="1">
                    <mxGeometry width="90" height="40" as="geometry">
                        <mxRectangle width="90" height="40" as="alternateBounds"/>
                    </mxGeometry>
                </mxCell>
                <mxCell id="35" value="string" style="shape=partialRectangle;html=1;whiteSpace=wrap;connectable=0;overflow=hidden;fillColor=#13181D;top=0;left=0;bottom=0;right=0;pointerEvents=1;" parent="33" vertex="1">
                    <mxGeometry x="90" width="90" height="40" as="geometry">
                        <mxRectangle width="90" height="40" as="alternateBounds"/>
                    </mxGeometry>
                </mxCell>
                <mxCell id="36" value="" style="shape=tableRow;horizontal=0;startSize=0;swimlaneHead=0;swimlaneBody=0;top=0;left=0;bottom=0;right=0;collapsible=0;dropTarget=0;fillColor=none;points=[[0,0.5],[1,0.5]];portConstraint=eastwest;" parent="29" vertex="1">
                    <mxGeometry y="120" width="180" height="40" as="geometry"/>
                </mxCell>
                <mxCell id="37" value="author" style="shape=partialRectangle;html=1;whiteSpace=wrap;connectable=0;overflow=hidden;fillColor=#13181D;top=0;left=0;bottom=0;right=0;pointerEvents=1;" parent="36" vertex="1">
                    <mxGeometry width="90" height="40" as="geometry">
                        <mxRectangle width="90" height="40" as="alternateBounds"/>
                    </mxGeometry>
                </mxCell>
                <mxCell id="38" value="string" style="shape=partialRectangle;html=1;whiteSpace=wrap;connectable=0;overflow=hidden;fillColor=#13181D;top=0;left=0;bottom=0;right=0;pointerEvents=1;" parent="36" vertex="1">
                    <mxGeometry x="90" width="90" height="40" as="geometry">
                        <mxRectangle width="90" height="40" as="alternateBounds"/>
                    </mxGeometry>
                </mxCell>
                <mxCell id="40" style="shape=tableRow;horizontal=0;startSize=0;swimlaneHead=0;swimlaneBody=0;top=0;left=0;bottom=0;right=0;collapsible=0;dropTarget=0;fillColor=none;points=[[0,0.5],[1,0.5]];portConstraint=eastwest;" parent="29" vertex="1">
                    <mxGeometry y="160" width="180" height="40" as="geometry"/>
                </mxCell>
                <mxCell id="41" value="bookshelf_id" style="shape=partialRectangle;html=1;whiteSpace=wrap;connectable=0;overflow=hidden;fillColor=#655880;top=0;left=0;bottom=0;right=0;pointerEvents=1;" parent="40" vertex="1">
                    <mxGeometry width="90" height="40" as="geometry">
                        <mxRectangle width="90" height="40" as="alternateBounds"/>
                    </mxGeometry>
                </mxCell>
                <mxCell id="42" value="integer" style="shape=partialRectangle;html=1;whiteSpace=wrap;connectable=0;overflow=hidden;fillColor=#655880;top=0;left=0;bottom=0;right=0;pointerEvents=1;" parent="40" vertex="1">
                    <mxGeometry x="90" width="90" height="40" as="geometry">
                        <mxRectangle width="90" height="40" as="alternateBounds"/>
                    </mxGeometry>
                </mxCell>
                <mxCell id="43" style="shape=tableRow;horizontal=0;startSize=0;swimlaneHead=0;swimlaneBody=0;top=0;left=0;bottom=0;right=0;collapsible=0;dropTarget=0;fillColor=none;points=[[0,0.5],[1,0.5]];portConstraint=eastwest;" parent="29" vertex="1">
                    <mxGeometry y="200" width="180" height="40" as="geometry"/>
                </mxCell>
                <mxCell id="44" value="read" style="shape=partialRectangle;html=1;whiteSpace=wrap;connectable=0;overflow=hidden;fillColor=#13181D;top=0;left=0;bottom=0;right=0;pointerEvents=1;" parent="43" vertex="1">
                    <mxGeometry width="90" height="40" as="geometry">
                        <mxRectangle width="90" height="40" as="alternateBounds"/>
                    </mxGeometry>
                </mxCell>
                <mxCell id="45" value="boolean" style="shape=partialRectangle;html=1;whiteSpace=wrap;connectable=0;overflow=hidden;fillColor=#13181D;top=0;left=0;bottom=0;right=0;pointerEvents=1;" parent="43" vertex="1">
                    <mxGeometry x="90" width="90" height="40" as="geometry">
                        <mxRectangle width="90" height="40" as="alternateBounds"/>
                    </mxGeometry>
                </mxCell>
                <mxCell id="46" style="shape=tableRow;horizontal=0;startSize=0;swimlaneHead=0;swimlaneBody=0;top=0;left=0;bottom=0;right=0;collapsible=0;dropTarget=0;fillColor=none;points=[[0,0.5],[1,0.5]];portConstraint=eastwest;" parent="29" vertex="1">
                    <mxGeometry y="240" width="180" height="40" as="geometry"/>
                </mxCell>
                <mxCell id="47" value="" style="shape=partialRectangle;html=1;whiteSpace=wrap;connectable=0;overflow=hidden;fillColor=#655880;top=0;left=0;bottom=0;right=0;pointerEvents=1;" parent="46" vertex="1">
                    <mxGeometry width="90" height="40" as="geometry">
                        <mxRectangle width="90" height="40" as="alternateBounds"/>
                    </mxGeometry>
                </mxCell>
                <mxCell id="48" value="" style="shape=partialRectangle;html=1;whiteSpace=wrap;connectable=0;overflow=hidden;fillColor=#655880;top=0;left=0;bottom=0;right=0;pointerEvents=1;" parent="46" vertex="1">
                    <mxGeometry x="90" width="90" height="40" as="geometry">
                        <mxRectangle width="90" height="40" as="alternateBounds"/>
                    </mxGeometry>
                </mxCell>
                <mxCell id="49" value="bookshelves" style="shape=table;startSize=40;container=1;collapsible=0;childLayout=tableLayout;fillColor=#231A4F;" parent="1" vertex="1">
                    <mxGeometry x="50" y="280" width="180" height="184" as="geometry"/>
                </mxCell>
                <mxCell id="50" value="" style="shape=tableRow;horizontal=0;startSize=0;swimlaneHead=0;swimlaneBody=0;top=0;left=0;bottom=0;right=0;collapsible=0;dropTarget=0;fillColor=none;points=[[0,0.5],[1,0.5]];portConstraint=eastwest;" parent="49" vertex="1">
                    <mxGeometry y="40" width="180" height="48" as="geometry"/>
                </mxCell>
                <mxCell id="51" value="id" style="shape=partialRectangle;html=1;whiteSpace=wrap;connectable=0;overflow=hidden;fillColor=#655880;top=0;left=0;bottom=0;right=0;pointerEvents=1;" parent="50" vertex="1">
                    <mxGeometry width="90" height="48" as="geometry">
                        <mxRectangle width="90" height="48" as="alternateBounds"/>
                    </mxGeometry>
                </mxCell>
                <mxCell id="52" value="varchar" style="shape=partialRectangle;html=1;whiteSpace=wrap;connectable=0;overflow=hidden;fillColor=#655880;top=0;left=0;bottom=0;right=0;pointerEvents=1;" parent="50" vertex="1">
                    <mxGeometry x="90" width="90" height="48" as="geometry">
                        <mxRectangle width="90" height="48" as="alternateBounds"/>
                    </mxGeometry>
                </mxCell>
                <mxCell id="53" value="" style="shape=tableRow;horizontal=0;startSize=0;swimlaneHead=0;swimlaneBody=0;top=0;left=0;bottom=0;right=0;collapsible=0;dropTarget=0;fillColor=none;points=[[0,0.5],[1,0.5]];portConstraint=eastwest;" parent="49" vertex="1">
                    <mxGeometry y="88" width="180" height="48" as="geometry"/>
                </mxCell>
                <mxCell id="54" value="genre" style="shape=partialRectangle;html=1;whiteSpace=wrap;connectable=0;overflow=hidden;fillColor=#13181D;top=0;left=0;bottom=0;right=0;pointerEvents=1;" parent="53" vertex="1">
                    <mxGeometry width="90" height="48" as="geometry">
                        <mxRectangle width="90" height="48" as="alternateBounds"/>
                    </mxGeometry>
                </mxCell>
                <mxCell id="55" value="string" style="shape=partialRectangle;html=1;whiteSpace=wrap;connectable=0;overflow=hidden;fillColor=#13181D;top=0;left=0;bottom=0;right=0;pointerEvents=1;" parent="53" vertex="1">
                    <mxGeometry x="90" width="90" height="48" as="geometry">
                        <mxRectangle width="90" height="48" as="alternateBounds"/>
                    </mxGeometry>
                </mxCell>
                <mxCell id="56" value="" style="shape=tableRow;horizontal=0;startSize=0;swimlaneHead=0;swimlaneBody=0;top=0;left=0;bottom=0;right=0;collapsible=0;dropTarget=0;fillColor=none;points=[[0,0.5],[1,0.5]];portConstraint=eastwest;" parent="49" vertex="1">
                    <mxGeometry y="136" width="180" height="48" as="geometry"/>
                </mxCell>
                <mxCell id="57" value="location" style="shape=partialRectangle;html=1;whiteSpace=wrap;connectable=0;overflow=hidden;fillColor=#13181D;top=0;left=0;bottom=0;right=0;pointerEvents=1;" parent="56" vertex="1">
                    <mxGeometry width="90" height="48" as="geometry">
                        <mxRectangle width="90" height="48" as="alternateBounds"/>
                    </mxGeometry>
                </mxCell>
                <mxCell id="58" value="string" style="shape=partialRectangle;html=1;whiteSpace=wrap;connectable=0;overflow=hidden;fillColor=#13181D;top=0;left=0;bottom=0;right=0;pointerEvents=1;" parent="56" vertex="1">
                    <mxGeometry x="90" width="90" height="48" as="geometry">
                        <mxRectangle width="90" height="48" as="alternateBounds"/>
                    </mxGeometry>
                </mxCell>
                <mxCell id="74" style="edgeStyle=orthogonalEdgeStyle;html=1;entryX=0;entryY=0.5;entryDx=0;entryDy=0;strokeColor=#8B88B8;shape=link;" parent="1" source="50" target="40" edge="1">
                    <mxGeometry relative="1" as="geometry"/>
                </mxCell>
                <mxCell id="76" value="Parent" style="text;html=1;align=center;verticalAlign=middle;resizable=0;points=[];autosize=1;strokeColor=none;fillColor=none;" parent="1" vertex="1">
                    <mxGeometry x="110" y="250" width="60" height="30" as="geometry"/>
                </mxCell>
                <mxCell id="77" value="Child" style="text;html=1;align=center;verticalAlign=middle;resizable=0;points=[];autosize=1;strokeColor=none;fillColor=none;" parent="1" vertex="1">
                    <mxGeometry x="395" y="250" width="50" height="30" as="geometry"/>
                </mxCell>
            </root>
        </mxGraphModel>
    </diagram>
</mxfile>